<?xml version="1.0" encoding="utf-8"?>
<svg xmlns="http://www.w3.org/2000/svg" width="120" height="126" viewBox="0 0 120 126" fill="none">
  <g style="" transform="matrix(1.36817, 0, 0, 1.39855, -22.0907, 0.065409)">
    <path fill-rule="evenodd" clip-rule="evenodd" d="M39.3923 0C41.7601 0 43.6792 1.94977 43.6792 4.3554C43.6792 5.63625 43.1354 6.78828 42.2685 7.58602L45.1288 12.2796L71.8314 12.8519L73.9992 7.94278C72.8787 7.15742 72.1435 5.84436 72.1435 4.3554C72.1435 1.94977 74.0626 0 76.4316 0C78.7994 0 80.7184 1.94977 80.7184 4.3554C80.7184 6.76103 78.7994 8.71204 76.4316 8.71204C76.0792 8.71204 75.7378 8.66868 75.4111 8.58692L72.8239 14.4449C63.3016 14.2393 53.7781 14.0349 44.2559 13.833L40.9542 8.4135C40.4701 8.6055 39.9434 8.71204 39.3923 8.71204C37.0246 8.71204 35.1055 6.76103 35.1055 4.3554C35.1055 1.94977 37.0246 0 39.3923 0V0Z" fill="#0F293D"/>
    <path fill-rule="evenodd" clip-rule="evenodd" d="M77.7453 54.6279C80.3899 55.1024 83.438 58.1868 84.7316 60.5751C82.3211 60.7968 78.5525 61.7172 77.0065 65.1981L77.8136 65.6737C79.2657 62.4072 83.0771 61.7085 85.2497 61.5834C85.7911 62.6933 86.3385 64.0027 86.8372 65.5263C84.8364 65.426 81.5494 65.6923 79.6778 68.1624C78.3464 66.7242 76.8004 65.5895 75.0703 65.1981L77.7453 54.6279ZM87.1688 66.5966C87.5078 67.7536 87.815 69.0196 88.0735 70.4045C86.5031 70.3611 84.2463 70.6609 82.6967 72.4026C82.0273 71.2258 81.2323 70.0031 80.3228 68.9019C82.0602 66.5409 85.3802 66.4492 87.1688 66.5966ZM88.2552 71.4549C88.4673 72.7742 88.6344 74.1925 88.7404 75.7149L85.1973 77.8158C85.1973 77.8158 84.4926 75.7682 83.1965 73.3143C84.5877 71.5961 86.8018 71.3794 88.2552 71.4549Z" fill="#0F293D"/>
    <path d="M88.1007 79.9419C87.9581 80.7124 88.458 81.4544 89.2163 81.5993C89.9735 81.7443 90.7038 81.2364 90.8465 80.4659C91.3476 77.7853 90.5685 75.9965 89.3614 75.0229C88.4507 74.2871 87.3046 74.0418 86.2451 74.2313C85.1721 74.4233 84.1809 75.06 83.5981 76.0869C82.8568 77.3901 82.7922 79.2767 84.1736 81.5386C84.5796 82.2026 85.4379 82.407 86.0914 81.9945C86.745 81.582 86.9461 80.7087 86.5401 80.0447C85.8013 78.8345 85.7415 77.9896 86.0195 77.5016C86.1683 77.2377 86.4353 77.0717 86.7303 77.0185C87.0388 76.964 87.3704 77.0333 87.6326 77.2452C88.1007 77.623 88.3751 78.4777 88.1007 79.9419Z" fill="#2563eb"/>
    <path fill-rule="evenodd" clip-rule="evenodd" d="M42.258 54.6279C39.6135 55.1024 36.5654 58.1868 35.2718 60.5751C37.6822 60.7968 41.4509 61.7172 42.9969 65.1981L42.1898 65.6737C40.7376 62.4072 36.9263 61.7085 34.7536 61.5834C34.2111 62.6933 33.6648 64.0027 33.1649 65.5263C35.1669 65.426 38.454 65.6923 40.3255 68.1624C41.657 66.7242 43.2029 65.5895 44.9331 65.1981L42.258 54.6279ZM32.8345 66.5966C32.4956 67.7536 32.1883 69.0196 31.9299 70.4045C33.5002 70.3611 35.7571 70.6609 37.3067 72.4026C37.9761 71.2258 38.771 70.0031 39.6806 68.9019C37.9432 66.5409 34.6232 66.4492 32.8345 66.5966ZM31.7482 71.4549C31.5348 72.7742 31.369 74.1925 31.2617 75.7149L34.806 77.8158C34.806 77.8158 35.5108 75.7682 36.8068 73.3143C35.4157 71.5961 33.2003 71.3794 31.7482 71.4549Z" fill="#0F293D"/>
    <path d="M31.9004 79.9419C32.0431 80.7124 31.5432 81.4544 30.7848 81.5993C30.0265 81.7443 29.2961 81.2364 29.1547 80.4659C28.6524 77.7853 29.4327 75.9965 30.6385 75.0229C31.5505 74.2871 32.6966 74.0418 33.7549 74.2313C34.8291 74.4233 35.8203 75.06 36.4031 76.0869C37.1432 77.3901 37.209 79.2767 35.8276 81.5386C35.4216 82.2026 34.5633 82.407 33.9097 81.9945C33.2562 81.582 33.0551 80.7087 33.4611 80.0447C34.1999 78.8345 34.2597 77.9896 33.9817 77.5016C33.8317 77.2377 33.5659 77.0717 33.2709 77.0185C32.9624 76.964 32.6308 77.0333 32.3686 77.2452C31.9004 77.623 31.6261 78.4777 31.9004 79.9419Z" fill="#2563eb"/>
    <path d="M60.2199 82.0804C57.351 82.0804 54.7759 80.9594 52.98 79.1805L55.3405 77.1973C56.5499 78.3989 58.2886 79.1459 60.2199 79.1459C63.88 79.1459 66.8391 76.4504 66.8391 73.1182C66.8391 69.9123 64.0946 67.2949 60.6381 67.1029L60.5478 69.0402L56.4695 65.9013L60.9087 61.5967L60.7856 64.1794C65.9466 64.452 70.0469 68.349 70.0469 73.1182C70.0469 78.0818 65.6418 82.0804 60.2199 82.0804ZM50.811 75.7133L50.1562 74.8858L51.0597 74.2863L51.5791 75.203L50.811 75.7133ZM52.3923 76.4615L53.1495 75.8942L52.5399 75.0333L51.6815 75.691L52.3923 76.4615ZM53.8152 77.175L54.5504 76.5408L53.8615 75.7356L53.0483 76.438L53.8152 77.175ZM51.6584 77.73L50.9463 76.9483L51.8047 76.2906L52.4045 77.1639L51.6584 77.73ZM52.969 78.9192L53.703 78.2849L53.0702 77.424L52.246 78.1152L52.969 78.9192Z" fill="white"/>
    <path d="M60.288 56.8369C63.1569 56.8369 65.7319 57.9592 67.5279 59.738L65.1674 61.72C63.8604 60.4491 62.1083 59.7455 60.288 59.7603C56.6279 59.7603 53.6688 62.4571 53.6688 65.788C53.6688 68.9939 56.4133 71.6113 59.8698 71.8046L59.96 69.8672L64.0384 73.0049L59.5991 77.3108L59.7235 74.7268C54.5612 74.4555 50.4609 70.5572 50.4609 65.788C50.4609 60.8479 54.8551 56.8369 60.288 56.8369ZM69.6969 63.2164L70.3516 64.0426C70.0468 64.247 69.753 64.4403 69.4482 64.6434C69.2677 64.3486 69.0873 64.0426 68.9056 63.7491C69.1653 63.567 69.4372 63.3973 69.6969 63.2164ZM68.1155 62.4682L67.3815 63.0232L67.9802 63.8952L68.8385 63.2387L68.1155 62.4682ZM66.6805 61.7324L65.9697 62.3431L66.6354 63.1929L67.4486 62.4905L66.6805 61.7324ZM68.8495 61.1997L69.5616 61.9814L68.7032 62.6379L68.1046 61.7658L68.8495 61.1997ZM67.4937 60.0552L66.7829 60.6559L67.4267 61.4933L68.2509 60.8033L67.4937 60.0552Z" fill="white"/>
    <path d="M53.5127 9.86035H66.3221C78.2767 9.86035 88.0574 19.7975 88.0574 31.9433V40.0186C88.0574 47.29 82.2027 53.2384 75.0457 53.2384H44.7891C37.6321 53.2384 31.7773 47.29 31.7773 40.0186V31.9433C31.7773 19.7975 41.5581 9.86035 53.5127 9.86035Z" fill="url(#paint0_linear_45_6210)"/>
    <path fill-rule="evenodd" clip-rule="evenodd" d="M65.1842 41.2773C65.2049 41.4693 65.2159 41.6651 65.2159 41.8633C65.2159 44.8189 62.8579 47.2146 59.9488 47.2146C57.147 47.2146 54.856 44.9911 54.6914 42.1853L65.1842 41.2773Z" fill="white"/>
    <path fill-rule="evenodd" clip-rule="evenodd" d="M47.7097 19.8857H72.1286C76.8288 19.8857 80.6743 23.7915 80.6743 28.568C80.6743 33.3434 76.8288 37.2504 72.1286 37.2504H47.7097C43.0095 37.2504 39.1641 33.3434 39.1641 28.568C39.1641 23.7915 43.0095 19.8857 47.7097 19.8857Z" fill="#0F293D"/>
    <path d="M37.9581 66.3312C51.4734 97.8893 68.8841 97.8893 82.3994 66.3312C85.4328 53.4236 73.9135 53.8088 73.9135 53.8088C58.8364 53.9228 61.5223 53.9228 46.444 53.8088C46.444 53.8088 34.9246 53.4236 37.9581 66.3312Z" fill="url(#paint1_linear_45_6210)"/>
    <path d="M54.7283 28.761C55.1612 29.4745 54.9441 30.411 54.2419 30.8519C53.5396 31.2917 52.6178 31.07 52.185 30.3565C52.1777 30.3465 49.8575 26.4086 46.8094 30.1694C46.2851 30.816 45.3426 30.9102 44.705 30.3775C44.0685 29.8449 43.9759 28.8873 44.5001 28.2395C50.244 21.1564 54.7149 28.7399 54.7283 28.761Z" fill="#FEFEFE"/>
    <path d="M67.6103 30.3565C67.1763 31.07 66.2558 31.2917 65.5535 30.8519C64.8512 30.411 64.633 29.4745 65.067 28.761C65.0804 28.7399 69.5514 21.1564 75.2952 28.2395C75.8195 28.8873 75.7268 29.8449 75.0904 30.3775C74.4527 30.9102 73.5102 30.816 72.986 30.1694C69.9366 26.4086 67.6177 30.3465 67.6103 30.3565Z" fill="#FEFEFE"/>
    <path d="M60.1468 83.3472C57.2011 83.3472 54.5566 82.1952 52.7119 80.3681L55.1357 78.3328C56.3769 79.5666 58.1631 80.3334 60.1468 80.3334C63.9045 80.3334 66.9428 77.5648 66.9428 74.1446C66.9428 70.8521 64.1252 68.1653 60.576 67.9671L60.4833 69.9565L56.2952 66.7333L60.8539 62.3135L60.7259 64.9656C66.0272 65.2443 70.2372 69.2467 70.2372 74.1446C70.2372 79.2396 65.7138 83.3472 60.1468 83.3472ZM50.4855 76.8092L49.8125 75.9594L50.7403 75.3425L51.2744 76.2852L50.4855 76.8092ZM52.1096 77.5759L52.8862 76.995L52.2595 76.1105L51.378 76.7856L52.1096 77.5759ZM53.5702 78.3093L54.3237 77.6577L53.6165 76.8315L52.7814 77.5536L53.5702 78.3093ZM51.3548 78.8791L50.6245 78.0764L51.506 77.4025L52.1205 78.2981L51.3548 78.8791ZM52.6997 80.1005L53.4544 79.4489L52.8045 78.5657L51.9584 79.2755L52.6997 80.1005Z" fill="white"/>
    <path d="M60.2154 57.4248C63.1611 57.4248 65.8056 58.5768 67.6491 60.4027L65.2253 62.4392C63.8841 61.1336 62.0845 60.4114 60.2154 60.4263C56.4577 60.4263 53.4182 63.1948 53.4182 66.6162C53.4182 69.9075 56.2371 72.5956 59.7863 72.7938L59.8789 70.8044L64.0658 74.0263L59.5071 78.4474L59.6351 75.7953C54.335 75.5153 50.125 71.513 50.125 66.6162C50.125 61.5436 54.6362 57.4248 60.2154 57.4248ZM69.8767 63.9752L70.5497 64.8238C70.2364 65.0331 69.934 65.2313 69.6219 65.4407C69.4353 65.1384 69.25 64.8238 69.0647 64.5215C69.3317 64.3357 69.6097 64.1611 69.8767 63.9752ZM68.2527 63.2072L67.4992 63.777L68.1137 64.6726L68.9952 63.9988L68.2527 63.2072ZM66.7798 62.4504L66.0495 63.0784L66.7335 63.9517L67.5687 63.2308L66.7798 62.4504ZM69.0062 61.9041L69.7377 62.7068L68.8562 63.3819L68.2417 62.4863L69.0062 61.9041ZM67.615 60.7285L66.8847 61.3454L67.5455 62.2063L68.3917 61.4965L67.615 60.7285Z" fill="white"/>
  </g>
  <defs fill="#000000">
    <linearGradient id="paint0_linear_45_6210" x1="53.8383" y1="15.6737" x2="67.9606" y2="46.9006" gradientUnits="userSpaceOnUse" fill="#000000">
      <stop stop-color="#2563eb" fill="#000000"/>
      <stop offset="0.3098" stop-color="#2563eb" fill="#000000"/>
      <stop offset="1" stop-color="#00CCCC" fill="#000000"/>
    </linearGradient>
    <linearGradient id="paint1_linear_45_6210" x1="55.2685" y1="58.658" x2="67.3027" y2="84.4188" gradientUnits="userSpaceOnUse" fill="#000000">
      <stop stop-color="#2563eb" fill="#000000"/>
      <stop offset="0.3098" stop-color="#2563eb" fill="#000000"/>
      <stop offset="1" stop-color="#00CCCC" fill="#000000"/>
    </linearGradient>
  </defs>
</svg>